<svg xmlns="http://www.w3.org/2000/svg" width="18.654" height="13.991" viewBox="0 0 18.654 13.991"><defs><style>.a{fill:#4a4649;}</style></defs><path class="a" d="M18.071,75.659H2.332V64.583A.583.583,0,0,0,1.749,64H.583A.583.583,0,0,0,0,64.583V76.825a1.166,1.166,0,0,0,1.166,1.166H18.071a.583.583,0,0,0,.583-.583V76.242A.583.583,0,0,0,18.071,75.659ZM16.905,65.166H12.6a.874.874,0,0,0-.618,1.493l1.18,1.18-2.673,2.674L7.82,67.839a1.165,1.165,0,0,0-1.649,0l-2.5,2.5a.583.583,0,0,0,0,.825l.824.824a.583.583,0,0,0,.825,0L7,70.312l2.673,2.673a1.165,1.165,0,0,0,1.649,0l3.5-3.5L16,70.668a.874.874,0,0,0,1.493-.618v-4.3A.582.582,0,0,0,16.905,65.166Z" transform="translate(0 -64)"/></svg>