<svg xmlns="http://www.w3.org/2000/svg" width="14.623" height="13" viewBox="0 0 14.623 13"><defs><style>.a{fill:#4447ab;opacity:0.6;}</style></defs><path class="a" d="M10.213,8.683l.812-.812a.2.2,0,0,1,.348.145v3.691a1.219,1.219,0,0,1-1.219,1.219H1.219A1.219,1.219,0,0,1,0,11.706V2.77A1.219,1.219,0,0,1,1.219,1.552H8.162a.2.2,0,0,1,.145.348l-.812.812a.2.2,0,0,1-.145.058H1.219v8.936h8.936V8.825A.2.2,0,0,1,10.213,8.683ZM14.189,3.56,7.522,10.226l-2.295.254A1.049,1.049,0,0,1,4.07,9.323l.254-2.295L10.99.361a1.482,1.482,0,0,1,2.1,0l1.1,1.1a1.487,1.487,0,0,1,0,2.1Zm-2.508.784L10.206,2.869,5.489,7.589,5.3,9.246l1.658-.185Zm1.645-2.023-1.1-1.1a.265.265,0,0,0-.376,0l-.784.784,1.475,1.475.784-.784A.27.27,0,0,0,13.326,2.321Z" transform="translate(0 0.075)"/></svg>