<svg xmlns="http://www.w3.org/2000/svg" width="21.061" height="21.065" viewBox="0 0 21.061 21.065"><defs><style>.a{fill:#4a4649;}</style></defs><path class="a" d="M14.291,14.455C13.675,10.663,12.223,8,10.532,8S7.39,10.663,6.774,14.455ZM6.455,18.532a26.62,26.62,0,0,0,.14,2.718h7.87a26.62,26.62,0,0,0,.14-2.718,26.62,26.62,0,0,0-.14-2.718H6.6A26.62,26.62,0,0,0,6.455,18.532Zm13.79-4.077a10.555,10.555,0,0,0-6.71-6.014,14.334,14.334,0,0,1,2.123,6.014ZM7.526,8.442A10.548,10.548,0,0,0,.82,14.455H5.406A14.276,14.276,0,0,1,7.526,8.442ZM20.7,15.814H15.828c.089.892.14,1.8.14,2.718s-.051,1.826-.14,2.718H20.7a10.442,10.442,0,0,0,.365-2.718,10.624,10.624,0,0,0-.361-2.718ZM5.1,18.532c0-.913.051-1.826.14-2.718H.365a10.3,10.3,0,0,0,0,5.436H5.232C5.147,20.359,5.1,19.446,5.1,18.532ZM6.774,22.61c.616,3.793,2.068,6.455,3.759,6.455s3.143-2.663,3.759-6.455Zm6.765,6.014a10.565,10.565,0,0,0,6.71-6.014H15.663A14.334,14.334,0,0,1,13.539,28.623ZM.82,22.61a10.555,10.555,0,0,0,6.71,6.014A14.334,14.334,0,0,1,5.406,22.61H.82Z" transform="translate(0 -8)"/></svg>