<svg xmlns="http://www.w3.org/2000/svg" width="24" height="24" viewBox="0 0 24 24"><defs><style>.a{fill:#4a4649;}.b{fill:none;stroke:#4a4649;}</style></defs><path class="a" d="M21.293,8H18.41l2.1-2.1a1.667,1.667,0,0,0,0-2.358L18.523,1.552a1.755,1.755,0,0,0-2.48,0L14,3.589V.707A1.708,1.708,0,0,0,12.293-1H9.707A1.708,1.708,0,0,0,8,.707V3.589L5.956,1.551a1.754,1.754,0,0,0-2.478,0L1.491,3.539a1.666,1.666,0,0,0,0,2.356L3.59,8H.707A1.708,1.708,0,0,0-1,9.707v2.586A1.708,1.708,0,0,0,.707,14H3.59L1.55,16.044a1.755,1.755,0,0,0,0,2.479l1.925,1.926a1.755,1.755,0,0,0,2.48,0L8,18.411v2.882A1.708,1.708,0,0,0,9.707,23h2.586A1.708,1.708,0,0,0,14,21.293V18.411l2.044,2.038a1.754,1.754,0,0,0,2.478,0l1.926-1.927a1.753,1.753,0,0,0,0-2.478L18.41,14h2.883A1.708,1.708,0,0,0,23,12.293V9.707A1.708,1.708,0,0,0,21.293,8ZM21,12H17.76a1.73,1.73,0,0,0-1.225,2.952l2.325,2.33L17.283,18.86,14.912,16.5A1.707,1.707,0,0,0,12,17.7V21H10V17.7A1.707,1.707,0,0,0,7.087,16.5L4.717,18.86,3.14,17.282l2.325-2.329A1.73,1.73,0,0,0,4.24,12H1V10H4.24A1.73,1.73,0,0,0,5.465,7.048L3.14,4.718,4.717,3.14,7.088,5.5A1.707,1.707,0,0,0,10,4.3V1h2V4.3A1.707,1.707,0,0,0,14.913,5.5l2.37-2.363L18.86,4.718,16.535,7.048A1.73,1.73,0,0,0,17.76,10H21v2Z" transform="translate(1 1)"/><path class="b" d="M171.667,169.667a2,2,0,1,0,2,2A2,2,0,0,0,171.667,169.667Zm0,3a1,1,0,1,1,1-1A1,1,0,0,1,171.667,172.667Z" transform="translate(-159.667 -159.667)"/></svg>