<svg xmlns="http://www.w3.org/2000/svg" width="24.11" height="23.105" viewBox="0 0 24.11 23.105"><defs><style>.a{fill:#4a4649;}</style></defs><path class="a" d="M346.339,124.89c.012-.205.021-.4.021-.527a10.027,10.027,0,0,0-3.731-7.813,1,1,0,0,0-1.264,1.562,8.019,8.019,0,0,1,2.986,6.251h0a4.019,4.019,0,1,0,1.988.526Zm-1.988,5.5a2.009,2.009,0,1,1,2.009-2.009A2.009,2.009,0,0,1,344.351,130.391Z" transform="translate(-324.26 -111.304)"/><path class="a" d="M47.2,21.7a1,1,0,0,0,1.2-.758,8.055,8.055,0,0,1,4.266-5.415,4.019,4.019,0,1,0-.442-2.009A10.064,10.064,0,0,0,46.442,20.5,1,1,0,0,0,47.2,21.7Zm9.039-10.021a2.009,2.009,0,1,1-1.98,2.347c0-.011,0-.021-.006-.032a2.011,2.011,0,0,1,1.986-2.315Z" transform="translate(-44.184 -9.67)"/><path class="a" d="M13.734,294.584a8.054,8.054,0,0,1-7.5-1.15,4.015,4.015,0,1,0-1.621,1.278,10.061,10.061,0,0,0,9.792,1.766,1,1,0,0,0-.67-1.894ZM1.009,291.022a2.009,2.009,0,1,1,2.009,2.009A2.009,2.009,0,0,1,1.009,291.022Z" transform="translate(1 -273.944)"/></svg>