<svg xmlns="http://www.w3.org/2000/svg" width="23" height="22.69" viewBox="0 0 23 22.69"><defs><style>.a{fill:#4a4649;}</style></defs><g transform="translate(1 1)"><g transform="translate(-1 -1)"><path class="a" d="M21.042,127H-.042a.9.9,0,0,0-.958.833v13.333A.9.9,0,0,0-.042,142H21.042a.9.9,0,0,0,.958-.833V127.833A.9.9,0,0,0,21.042,127Zm-.958,13.333H.917V128.667H20.083v11.667Z" transform="translate(1 -119.31)"/><path class="a" d="M21.293,64.9H40.478a.948.948,0,1,0,0-1.9H21.293a.948.948,0,1,0,0,1.9Z" transform="translate(-19.386 -59.156)"/><path class="a" d="M63.962.9H79.349a.955.955,0,0,0,.962-.948A.955.955,0,0,0,79.349-1H63.962A.955.955,0,0,0,63-.052.955.955,0,0,0,63.962.9Z" transform="translate(-60.155 1)"/></g></g></svg>