<svg xmlns="http://www.w3.org/2000/svg" width="19.829" height="17.35" viewBox="0 0 19.829 17.35"><defs><style>.a{fill:#4a4649;}</style></defs><path class="a" d="M.62,35.718H16.731a.619.619,0,0,0,.62-.62V32.62a.619.619,0,0,0-.62-.62H.62a.619.619,0,0,0-.62.62V35.1A.619.619,0,0,0,.62,35.718Zm18.59,3.1H3.1a.619.619,0,0,0-.62.62v2.479a.619.619,0,0,0,.62.62H19.209a.619.619,0,0,0,.62-.62V39.436A.619.619,0,0,0,19.209,38.816Zm-2.479,6.816H.62a.619.619,0,0,0-.62.62v2.479a.619.619,0,0,0,.62.62H16.731a.619.619,0,0,0,.62-.62V46.252A.619.619,0,0,0,16.731,45.633Z" transform="translate(0 -32)"/></svg>